<svg id="Layer_1" data-name="Layer 1" xmlns="http://www.w3.org/2000/svg" viewBox="0 0 30.54 40.64"><defs><style>.cls-1{fill:#fff;}</style></defs><title>Artboard 1</title><g id="Layer_2" data-name="Layer 2"><g id="nav_logo_and_headline" data-name="nav logo and headline"><polygon class="cls-1" points="30.54 7.73 30.54 2.48 17.89 2.48 17.89 0 12.65 0 12.65 2.48 0 2.48 0 7.73 12.65 7.73 12.65 9.09 0 9.09 0 14.33 30.54 14.33 30.54 9.09 17.89 9.09 17.89 7.73 30.54 7.73"/><path class="cls-1" d="M25.3,15.64c.1,3-.06,16.16-10,19.56-10-3.39-10.13-16.54-10-19.56H0c.13,12.74,4.16,21.22,15.27,25,11.1-3.78,15.14-12.26,15.27-25Z"/></g></g></svg>