<svg id="Layer_1" data-name="Layer 1" xmlns="http://www.w3.org/2000/svg" viewBox="0 0 172.41 21"><defs><style>.cls-1{fill:#6b4c9f;}.cls-1,.cls-2{fill-rule:evenodd;}.cls-2{fill:#39b54a;}.cls-3{isolation:isolate;}.cls-4{fill:#313743;}</style></defs><title>explorer</title><g id="Artboard"><polygon id="Fill-1" class="cls-1" points="26 21 27 21 27 0 26 0 26 21"/><polygon id="Fill-3" class="cls-2" points="5.87 2 5.87 2.86 0 2.86 0 5 5.87 5 5.87 5.86 0 5.86 0 8 14 8 14 5.86 8.13 5.86 8.13 5 14 5 14 2.86 8.13 2.86 8.13 2 5.87 2"/><path id="Fill-4" class="cls-1" d="M14,9a14.86,14.86,0,0,1-1.74,7.16A10.65,10.65,0,0,1,7,20a10.65,10.65,0,0,1-5.26-3.84A14.86,14.86,0,0,1,0,9H2.51a11.31,11.31,0,0,0,1,5.53,6.49,6.49,0,0,0,3.46,3,6.49,6.49,0,0,0,3.46-3,11.31,11.31,0,0,0,1-5.53Z"/><g id="EXPLORER"><g class="cls-3"><path class="cls-4" d="M45.88,11.69H41.94v2.66h4.62V16H39.89V6.05h6.66V7.71H41.94v2.37h3.94Z"/></g><g class="cls-3"><path class="cls-4" d="M60.77,9.48l1.87-3.43H65L62.1,11l3,5H62.68l-1.91-3.49L58.86,16H56.47l3-5L56.55,6.05H58.9Z"/><path class="cls-4" d="M77.24,12.49V16h-2V6.05h3.88a4.36,4.36,0,0,1,2,.41,3,3,0,0,1,1.31,1.16,3.23,3.23,0,0,1,.46,1.72,2.85,2.85,0,0,1-1,2.31,4.18,4.18,0,0,1-2.77.84Zm0-1.66h1.83a1.82,1.82,0,0,0,1.24-.38,1.38,1.38,0,0,0,.43-1.09,1.53,1.53,0,0,0-1.62-1.65H77.24Z"/></g><g class="cls-3"><path class="cls-4" d="M96,14.35h4.35V16H94V6.05H96Z"/></g><g class="cls-3"><path class="cls-4" d="M118.51,11.25a6.12,6.12,0,0,1-.51,2.58,4.08,4.08,0,0,1-1.49,1.71,4.39,4.39,0,0,1-4.43,0,3.84,3.84,0,0,1-1.5-1.7A5.68,5.68,0,0,1,110,11.3v-.49a5.91,5.91,0,0,1,.53-2.59,4,4,0,0,1,1.49-1.71,4.39,4.39,0,0,1,4.43,0A4,4,0,0,1,118,8.22a5.89,5.89,0,0,1,.53,2.58Zm-2.07-.45a4.2,4.2,0,0,0-.56-2.38,2,2,0,0,0-3.2,0,4.12,4.12,0,0,0-.56,2.35v.49a4.16,4.16,0,0,0,.56,2.36,1.82,1.82,0,0,0,1.61.85,1.8,1.8,0,0,0,1.59-.82,4.21,4.21,0,0,0,.56-2.36Z"/><path class="cls-4" d="M132.78,12.36h-1.64V16h-2V6.05h3.7a4.22,4.22,0,0,1,2.72.78,2.72,2.72,0,0,1,1,2.22,3.09,3.09,0,0,1-.44,1.7,3,3,0,0,1-1.34,1.09l2.15,4.06V16h-2.2Zm-1.64-1.66h1.66a1.69,1.69,0,0,0,1.19-.4,1.41,1.41,0,0,0,.43-1.08,1.54,1.54,0,0,0-.4-1.11,1.67,1.67,0,0,0-1.23-.4h-1.65Z"/><path class="cls-4" d="M153.1,11.69h-3.94v2.66h4.62V16h-6.67V6.05h6.66V7.71h-4.61v2.37h3.94Z"/><path class="cls-4" d="M167.76,12.36h-1.64V16h-2.05V6.05h3.7a4.2,4.2,0,0,1,2.72.78,2.72,2.72,0,0,1,1,2.22,3.09,3.09,0,0,1-.44,1.7,3,3,0,0,1-1.34,1.09l2.15,4.06V16h-2.2Zm-1.64-1.66h1.66a1.69,1.69,0,0,0,1.19-.4,1.37,1.37,0,0,0,.43-1.08,1.54,1.54,0,0,0-.4-1.11,1.67,1.67,0,0,0-1.23-.4h-1.65Z"/></g></g></g></svg>