<svg id="Layer_1" data-name="Layer 1" xmlns="http://www.w3.org/2000/svg" viewBox="0 0 177 21"><defs><style>.cls-1{fill:#6b4c9f;}.cls-1,.cls-2{fill-rule:evenodd;}.cls-2{fill:#39b54a;}.cls-3,.cls-4{isolation:isolate;}.cls-4{font-size:14px;fill:#323743;font-family:Muli-SemiBold, Muli;font-weight:600;letter-spacing:0.65em;}.cls-5{letter-spacing:0.65em;}.cls-6{letter-spacing:0.62em;}.cls-7{letter-spacing:0.65em;}</style></defs><title>explorer</title><g id="Artboard"><polygon id="Fill-1" class="cls-1" points="26 21 27 21 27 0 26 0 26 21"/><polygon id="Fill-3" class="cls-2" points="5.87 2 5.87 2.86 0 2.86 0 5 5.87 5 5.87 5.86 0 5.86 0 8 14 8 14 5.86 8.13 5.86 8.13 5 14 5 14 2.86 8.13 2.86 8.13 2 5.87 2"/><path id="Fill-4" class="cls-1" d="M14,9a14.82,14.82,0,0,1-1.74,7.16A10.58,10.58,0,0,1,7,20a10.58,10.58,0,0,1-5.26-3.84A14.82,14.82,0,0,1,0,9H2.51a11.36,11.36,0,0,0,1,5.53,6.51,6.51,0,0,0,3.46,3,6.51,6.51,0,0,0,3.46-3,11.36,11.36,0,0,0,1-5.53Z"/><g id="EXPLORER" class="cls-3"><text class="cls-4" transform="translate(39 16)">E<tspan class="cls-5" x="17.32" y="0">XP</tspan><tspan class="cls-6" x="54.1" y="0">L</tspan><tspan class="cls-7" x="70.45" y="0">ORER</tspan></text></g></g></svg>