<svg xmlns="http://www.w3.org/2000/svg" viewBox="0 0 1332.24 995.26"><defs><style>.cls-1{fill:#37b34a;}.cls-2{fill:#6c4c9e;}</style></defs><title>Asset 5</title><g id="Layer_2" data-name="Layer 2"><g id="Layer_1-2" data-name="Layer 1"><path d="M40.13,914c-8.63,0-14.25,3.15-14.25,9,0,19.45,51.51,8.9,51.37,43.28,0,17.94-15.62,28.36-36.71,28.36A62.25,62.25,0,0,1,0,979.37l7.67-15.48C17.53,972.66,30.54,978,40.82,978s16.44-3.83,16.44-10.55c0-20-51.5-8.62-51.5-42.73,0-16.71,14.38-27.4,35.89-27.4a65.24,65.24,0,0,1,34.65,10.14l-7.4,15.89C58.62,917.18,47.52,914,40.13,914Z"/><path d="M192.31,898.14v16H140.39v23.7H187v16H140.39V978H194v16H122V898.14Z"/><path d="M310.25,898.14v16H258.33v23.7h46.58v16H258.33V978h53.56v16H240V898.14Z"/><path d="M447.77,946.08c0,27.95-21.1,47.94-50.69,47.94H357.92V898.14h39.85C426.82,898.14,447.77,918,447.77,946.08Zm-18.77.14c0-18.77-13.56-31.92-31.5-31.92H376.27v63.56h21.91C415.86,977.87,429,964.85,429,946.23Z"/><path d="M556.54,898.14v16.3H526.68V994h-18.5V914.44H478.33v-16.3Z"/><path d="M635,897.6c-28.9,0-51.09,20.82-51.09,48.49s22.19,48.76,51.09,48.76,51.09-21.23,51.09-48.76S663.92,897.6,635,897.6Zm.28,80.81a32.53,32.53,0,0,1-32.6-32.33c0-18.08,14.79-32.05,32.6-32.05a32.19,32.19,0,0,1,0,64.38Z"/><path d="M793.23,994l-29.87-41.09-15.34,17V994H729.68V898.14H748V945l43.42-46.85h21.37l-36.57,40.55L815.42,994Z"/><path d="M926.79,898.14v16H874.88v23.7h46.57v16H874.88V978h53.56v16H856.52V898.14Z"/><path d="M991.85,898.14l49.44,65.62V898.14h17.81V994h-17.4L992.4,928.55V994H974.45V898.14Z"/><path d="M1123.08,985.26c0,5.75-4,10-9.45,10s-9.31-4.24-9.31-10,4-9.73,9.31-9.73S1123.08,979.51,1123.08,985.26Z"/><path d="M1186.64,898.14V994h-18.35V898.14Z"/><path d="M1281.15,897.6c-28.9,0-51.09,20.82-51.09,48.49s22.19,48.76,51.09,48.76,51.09-21.23,51.09-48.76S1310,897.6,1281.15,897.6Zm.28,80.81a32.53,32.53,0,0,1-32.6-32.33c0-18.08,14.79-32.05,32.6-32.05a32.19,32.19,0,0,1,0,64.38Z"/><polygon class="cls-1" points="944.68 140.97 944.68 45.33 713.94 45.33 713.94 0 618.3 0 618.3 45.33 387.56 45.33 387.56 140.97 618.3 140.97 618.3 165.81 387.56 165.81 387.56 261.45 944.68 261.45 944.68 165.81 713.94 165.81 713.94 140.97 944.68 140.97"/><path class="cls-2" d="M849.06,285.26C850.85,340.2,848,580,666.12,641.95,484.25,580,481.38,340.2,483.17,285.26H387.67c2.3,232.3,75.93,387,278.45,455.93,202.52-69,276.15-223.63,278.45-455.93Z"/></g></g></svg>